<?xml version="1.0" standalone="no"?>
<!DOCTYPE svg PUBLIC "-//W3C//DTD SVG 20010904//EN"
 "http://www.w3.org/TR/2001/REC-SVG-20010904/DTD/svg10.dtd">
<svg version="1.0" xmlns="http://www.w3.org/2000/svg"
 width="512.000000pt" height="512.000000pt" viewBox="0 0 512.000000 512.000000"
 preserveAspectRatio="xMidYMid meet">
<metadata>
Created by potrace 1.11, written by Peter Selinger 2001-2013
</metadata>
<g transform="translate(0.000000,512.000000) scale(0.100000,-0.100000)"
fill="#000000" stroke="none">
<path d="M1594 3941 c-83 -54 -295 -234 -382 -324 l-72 -75 2 -424 3 -423 106
-7 c207 -12 386 -95 519 -239 l45 -49 62 20 c132 41 229 53 398 47 134 -4 174
-9 248 -31 93 -28 204 -79 276 -129 62 -42 176 -152 226 -217 40 -53 265 -414
265 -426 0 -4 -72 63 -160 147 -202 193 -266 249 -358 306 -281 176 -642 149
-1000 -74 -40 -25 -75 -44 -76 -42 -2 2 -27 50 -56 107 -64 127 -121 197 -205
258 -68 48 -198 108 -259 120 l-36 6 0 -453 c0 -444 1 -455 21 -489 28 -46
343 -361 389 -389 35 -21 35 -21 1011 -21 l976 0 44 32 c59 43 247 226 325
317 l64 74 0 399 0 398 -45 0 c-90 0 -286 -35 -437 -79 l-67 -19 -66 116
c-118 207 -220 322 -356 403 -143 85 -297 115 -552 106 l-169 -6 37 26 c178
121 454 179 654 139 213 -43 402 -169 545 -363 l58 -79 52 7 c28 4 117 8 199
8 l147 1 0 468 0 469 -64 74 c-82 94 -257 266 -319 313 l-49 36 -942 0 -943 0
-59 -39z"/>
<path d="M1045 2679 c-98 -14 -384 -88 -470 -122 -70 -28 -76 -32 -50 -36 17
-2 122 2 235 9 179 10 214 10 280 -4 41 -9 81 -16 88 -16 9 0 12 25 12 90 0
101 9 94 -95 79z"/>
<path d="M3980 2490 l0 -120 109 0 c224 0 412 -55 586 -173 97 -66 157 -130
291 -308 69 -93 128 -169 130 -169 14 0 -167 384 -209 442 -95 134 -260 270
-400 332 -125 55 -377 116 -478 116 l-29 0 0 -120z"/>
</g>
</svg>
